<svg width="19" height="29" viewBox="0 0 19 29" fill="none" xmlns="http://www.w3.org/2000/svg">
<g clip-path="url(#clip0_226_244)">
<path d="M18.7571 8.84925C18.7571 9.54227 18.629 10.1753 18.3725 10.7484C18.1296 11.3214 17.8125 11.8479 17.4211 12.3276C17.0298 12.8074 16.5913 13.2472 16.1055 13.647C15.6332 14.0469 15.1676 14.4134 14.7088 14.7465C14.2635 15.0797 13.8452 15.3929 13.4538 15.6861C13.076 15.966 12.7926 16.2325 12.6037 16.4857C12.5227 16.5924 12.4283 16.7589 12.3203 16.9855C12.2124 17.1987 12.1584 17.4454 12.1584 17.7251C12.1584 18.4448 11.929 19.038 11.4702 19.5044C11.0249 19.9708 10.3231 20.2041 9.36506 20.2041C8.7848 20.2041 8.30574 20.1175 7.9279 19.9441C7.56357 19.7575 7.26669 19.531 7.03729 19.2645C6.82138 18.9979 6.6662 18.7115 6.57173 18.4049C6.49076 18.0984 6.45029 17.8184 6.45029 17.5653C6.45029 16.659 6.60547 15.8993 6.91584 15.2863C7.2262 14.6732 7.61755 14.1468 8.08983 13.707C8.56214 13.2539 9.06818 12.8607 9.60795 12.5276C10.1477 12.1944 10.6538 11.8479 11.1261 11.488C11.5984 11.1282 11.9897 10.7284 12.3001 10.2886C12.6104 9.83546 12.7656 9.27572 12.7656 8.60937C12.7656 7.91634 12.6442 7.36993 12.4013 6.97012C12.1719 6.57029 11.8817 6.2771 11.5309 6.09052C11.1935 5.8906 10.8359 5.77066 10.4581 5.73069C10.0937 5.67737 9.78337 5.65072 9.52698 5.65072C8.85227 5.65072 8.3125 5.75067 7.90766 5.95058C7.50284 6.13717 7.19246 6.37705 6.97656 6.67026C6.77415 6.96345 6.6392 7.28997 6.57173 7.64981C6.51776 7.99631 6.49076 8.32949 6.49076 8.64934C6.49076 9.1691 6.38956 9.61557 6.18714 9.98873C5.98472 10.3486 5.72834 10.6418 5.41797 10.8683C5.12108 11.0949 4.79048 11.2615 4.42613 11.3681C4.07529 11.4747 3.75143 11.528 3.45454 11.528C2.53693 11.528 1.79474 11.2815 1.22798 10.7884C0.661218 10.2819 0.377838 9.63556 0.377838 8.84925C0.377838 8.50275 0.418322 8.05629 0.499286 7.50986C0.580254 6.96345 0.735437 6.38372 0.964841 5.77066C1.19424 5.15762 1.51811 4.54456 1.93643 3.93152C2.35475 3.31846 2.90128 2.76537 3.57599 2.27227C4.25071 1.77917 5.07386 1.37935 6.04545 1.07283C7.01704 0.7663 8.17756 0.613037 9.52698 0.613037C11.0518 0.613037 12.3878 0.819609 13.5348 1.23275C14.6953 1.63257 15.6602 2.19897 16.4293 2.93197C17.1985 3.65163 17.7788 4.51791 18.17 5.53078C18.5614 6.53031 18.7571 7.63647 18.7571 8.84925Z" fill="#006AB4"/>
<path d="M11.9762 28.2003C12.5565 27.6539 12.8466 26.8144 12.8466 25.6815C12.8466 24.5353 12.57 23.7024 12.0167 23.1826C11.4769 22.663 10.647 22.403 9.52698 22.403C8.44744 22.403 7.61755 22.663 7.03729 23.1826C6.45703 23.7024 6.1669 24.5353 6.1669 25.6815C6.1669 26.8144 6.45703 27.6539 7.03729 28.2003C7.61755 28.7335 8.44744 29 9.52698 29C10.5795 29 11.396 28.7335 11.9762 28.2003Z" fill="#FFD203"/>
</g>
<defs>
<clipPath id="clip0_226_244">
<rect width="19" height="29" fill="white"/>
</clipPath>
</defs>
</svg>
